<!-- Logo GitHub dalam format SVG -->
<svg xmlns="http://www.w3.org/2000/svg" viewBox="0 0 24 24" fill="currentColor" class="h-6 w-6">
  <path fill-rule="evenodd" d="M12 0C5.373 0 0 5.373 0 12c0 5.302 3.438 9.799 8.205 11.385.6.11.82-.26.82-.577 0-.285-.01-1.04-.015-2.04-3.338.724-4.043-1.61-4.043-1.61-.546-1.387-1.332-1.756-1.332-1.756-1.09-.745.083-.729.083-.729 1.205.086 1.838 1.238 1.838 1.238 1.07 1.833 2.807 1.304 3.49.997.108-.775.417-1.304.76-1.605-2.665-.3-5.464-1.332-5.464-5.93 0-1.31.465-2.38 1.235-3.22-.12-.3-.535-1.52.117-3.176 0 0 1.008-.32 3.301 1.23.957-.266 1.983-.4 3.003-.404 1.02.004 2.046.138 3.003.404 2.29-1.55 3.297-1.23 3.297-1.23.653 1.656.238 2.876.118 3.176.77.84 1.233 1.91 1.233 3.22 0 4.61-2.8 5.625-5.475 5.922.42.36.81 1.096.81 2.22 0 1.606-.015 2.896-.015 3.286 0 .318.21.69.825.57C20.565 21.796 24 17.3 24 12c0-6.627-5.373-12-12-12z" />
</svg>
